<svg xmlns="http://www.w3.org/2000/svg" viewBox="0 0 660 240" width="660" height="240" role="img" aria-label="Concept logo BoardCue"><rect width="660" height="240" rx="16" fill="#FFFFFF"/><g transform="translate(60 40) scale(2)"><rect x="8" y="10" width="12" height="30" rx="6" fill="#12151C"/><rect x="26" y="10" width="12" height="44" rx="6" fill="#12151C"/><rect x="44" y="10" width="12" height="18" rx="6" fill="#12151C"/><circle cx="50" cy="41" r="6" fill="#F25A28"/></g><g transform="translate(270 40) scale(2)"><path d="M20 10h24a12 12 0 0 1 12 12v12a12 12 0 0 1-12 12H24l-10 10v-10.6A12 12 0 0 1 8 34V22a12 12 0 0 1 12-12z" fill="#4338E0"/><rect x="18" y="18" width="7" height="18" rx="3.5" fill="#fff"/><rect x="28.5" y="18" width="7" height="22" rx="3.5" fill="#fff"/><rect x="39" y="18" width="7" height="11" rx="3.5" fill="#fff"/><circle cx="42.5" cy="35" r="3.5" fill="#FF7A4D"/></g><g transform="translate(480 40) scale(2)"><path d="M46.14 46.14A20 20 0 1 1 46.14 17.86" fill="none" stroke="#12151C" stroke-width="10" stroke-linecap="round"/><circle cx="51" cy="32" r="5.5" fill="#FF7A4D"/></g><text x="124" y="196" text-anchor="middle" font-family="Inter,'Segoe UI',sans-serif" font-size="14" font-weight="700" fill="#12151C">A · Cue Columns (consigliato)</text><text x="124" y="216" text-anchor="middle" font-family="Inter,'Segoe UI',sans-serif" font-size="11" fill="#5E6679">colonne board + onda vocale + cue</text><text x="334" y="196" text-anchor="middle" font-family="Inter,'Segoe UI',sans-serif" font-size="14" font-weight="700" fill="#12151C">B · Speech Board</text><text x="334" y="216" text-anchor="middle" font-family="Inter,'Segoe UI',sans-serif" font-size="11" fill="#5E6679">fumetto che contiene la board</text><text x="544" y="196" text-anchor="middle" font-family="Inter,'Segoe UI',sans-serif" font-size="14" font-weight="700" fill="#12151C">C · Cue Light</text><text x="544" y="216" text-anchor="middle" font-family="Inter,'Segoe UI',sans-serif" font-size="11" fill="#5E6679">C aperta + luce di cue</text></svg>
